<?xml version="1.0" standalone="no"?><!DOCTYPE svg PUBLIC "-//W3C//DTD SVG 1.1//EN" "http://www.w3.org/Graphics/SVG/1.1/DTD/svg11.dtd"><svg t="1689046345956" class="icon" viewBox="0 0 1024 1024" version="1.1" xmlns="http://www.w3.org/2000/svg" p-id="4340" xmlns:xlink="http://www.w3.org/1999/xlink" width="400" height="400"><path d="M917.942857 801.645714H106.057143c-20.114286 0-36.571429-16.457143-36.571429-36.571428V138.605714c0-20.114286 16.457143-36.571429 36.571429-36.571428h811.885714c20.114286 0 36.571429 16.457143 36.571429 36.571428v626.651429c0 20.114286-16.457143 36.388571-36.571429 36.388571z m-775.314286-73.142857h738.742858V175.177143H142.628571v553.325714zM230.4 848.822857h563.2v73.142857H230.4z" fill="#4C4C4C" p-id="4341"></path><path d="M478.902857 596.114286c-9.325714 0-18.651429-3.657143-25.782857-10.605715l-140.251429-139.885714 51.565715-51.748571 116.662857 116.297143 217.6-180.114286 46.628571 56.32-243.2 201.142857c-6.765714 5.851429-14.994286 8.594286-23.222857 8.594286z" fill="#4C4C4C" p-id="4342"></path></svg>