<?xml version="1.0" standalone="no"?><!DOCTYPE svg PUBLIC "-//W3C//DTD SVG 1.1//EN" "http://www.w3.org/Graphics/SVG/1.1/DTD/svg11.dtd"><svg t="1693716967282" class="icon" viewBox="0 0 1194 1024" version="1.1" xmlns="http://www.w3.org/2000/svg" p-id="1472" xmlns:xlink="http://www.w3.org/1999/xlink" width="233.203125" height="200"><path d="M1045.333333 1022.976H149.333333c-82.432 0-149.333333-65.365333-149.333333-145.92V146.944C0 66.389333 66.901333 1.024 149.333333 1.024h214.016c57.685333 0.256 110.08 32.426667 134.4 82.773333l30.890667 63.146667h516.693333c82.432 0 149.333333 65.450667 149.333334 146.090667v584.021333c0 80.554667-66.901333 145.92-149.333334 145.92zM99.584 428.373333v448.768c0 26.794667 22.272 48.64 49.749333 48.64h896a49.237333 49.237333 0 0 0 49.749334-48.64V428.288H99.584z m0-97.28h995.498667v-37.973333a49.237333 49.237333 0 0 0-49.749334-48.64H497.749333a49.834667 49.834667 0 0 1-44.8-27.818667l-44.288-90.453333a49.92 49.92 0 0 0-45.226666-27.818667H149.333333a49.237333 49.237333 0 0 0-49.749333 48.64v183.978667z" fill="#000000" p-id="1473"></path></svg>